<svg width="24" height="24" viewBox="0 0 24 24" fill="none" xmlns="http://www.w3.org/2000/svg">
<path d="M3 12.5C3 11.3954 3.89543 10.5 5 10.5H7C8.10457 10.5 9 11.3954 9 12.5V19C9 20.1046 8.10457 21 7 21H5C3.89543 21 3 20.1046 3 19V12.5ZM21 19C21 20.1046 20.1046 21 19 21H12.5C11.3954 21 10.5 20.1046 10.5 19V12.5C10.5 11.3954 11.3954 10.5 12.5 10.5H19C20.1046 10.5 21 11.3954 21 12.5V19ZM7 3C8.10457 3 9 3.89543 9 5V7C9 8.10457 8.10457 9 7 9H5C3.89543 9 3 8.10457 3 7V5C3 3.89543 3.89543 3 5 3H7ZM21 7C21 8.10457 20.1046 9 19 9H12.5C11.3954 9 10.5 8.10457 10.5 7V5C10.5 3.89543 11.3954 3 12.5 3H19C20.1046 3 21 3.89543 21 5V7Z" fill="#FF621A"/>
</svg>
